<?xml version="1.0" standalone="no"?>
<!DOCTYPE svg PUBLIC "-//W3C//DTD SVG 20010904//EN"
 "http://www.w3.org/TR/2001/REC-SVG-20010904/DTD/svg10.dtd">
<svg version="1.0" xmlns="http://www.w3.org/2000/svg"
 width="215.000000pt" height="234.000000pt" viewBox="0 0 215.000000 234.000000"
 preserveAspectRatio="xMidYMid meet">

<g transform="translate(0.000000,234.000000) scale(0.100000,-0.100000)"
fill="#000000" stroke="none">
<path d="M847 2145 c-195 -37 -371 -130 -517 -275 -149 -147 -235 -304 -282
-514 -29 -132 -22 -343 16 -471 103 -346 350 -596 693 -702 82 -25 100 -27
273 -27 173 0 191 2 275 27 178 55 301 125 428 246 132 126 227 289 279 479
31 112 31 382 0 495 -100 364 -369 632 -730 729 -102 27 -324 34 -435 13z
m293 -205 c87 -14 130 -29 130 -44 0 -28 -82 -232 -101 -251 -17 -18 -33 -20
-139 -20 -146 0 -146 0 -195 138 -48 135 -48 143 18 161 93 27 186 32 287 16z
m-384 -191 l42 -114 -88 -9 c-48 -5 -136 -5 -194 -1 l-107 7 34 41 c59 73 234
202 261 194 6 -2 29 -55 52 -118z m694 74 c55 -36 163 -141 180 -174 9 -16 0
-18 -96 -24 -58 -4 -135 -5 -172 -1 -37 3 -74 6 -84 6 -14 0 -12 10 13 78 52
136 60 152 83 152 12 0 46 -17 76 -37z m130 -286 c0 -2 -33 -25 -74 -50 -133
-84 -110 -81 -476 -79 l-325 2 -100 50 c-177 86 -213 79 418 80 306 0 557 -1
557 -3z m225 -211 c17 -61 25 -112 25 -166 0 -89 -13 -113 -58 -105 -15 3 -67
12 -116 20 -49 8 -91 17 -94 20 -2 2 42 81 99 174 67 111 106 166 111 158 4
-8 19 -53 33 -101z m-1396 -62 c56 -92 98 -170 94 -174 -13 -13 -247 -49 -257
-40 -17 16 0 231 24 308 13 39 26 72 30 72 4 0 53 -75 109 -166z m378 -235
c101 -172 188 -332 194 -354 10 -36 5 -203 -7 -214 -6 -6 0 -14 -96 154 -47
83 -170 295 -272 473 -102 177 -186 327 -186 332 0 5 41 -10 92 -33 l92 -43
183 -315z m671 54 c-110 -192 -237 -411 -281 -488 l-82 -140 -7 40 c-4 22 -7
77 -7 121 l-1 81 170 296 c93 163 175 306 182 318 11 18 196 118 220 119 3 0
-84 -156 -194 -347z m-118 242 c0 -10 -304 -525 -310 -525 -7 0 -300 511 -300
523 0 4 137 7 305 7 168 0 305 -2 305 -5z m-768 -342 c42 -44 71 -108 64 -140
-4 -15 -48 -77 -98 -137 l-91 -109 -19 24 c-91 112 -184 307 -159 332 10 11
203 52 257 56 11 0 32 -11 46 -26z m1093 12 c52 -9 106 -20 119 -25 23 -8 24
-12 15 -52 -5 -24 -25 -74 -43 -113 -34 -72 -119 -195 -135 -195 -8 0 -135
145 -180 207 l-24 32 27 55 c29 60 76 106 107 106 11 0 62 -7 114 -15z m-855
-421 c61 -107 110 -199 108 -203 -5 -13 -137 18 -213 50 -98 41 -180 98 -180
125 0 17 157 224 170 224 2 0 54 -88 115 -196z m659 87 c50 -60 91 -111 91
-114 0 -8 -115 -84 -165 -110 -48 -24 -161 -60 -218 -70 -19 -3 -27 0 -25 8 5
21 212 394 219 395 4 0 48 -49 98 -109z"/>
</g>
</svg>
